<svg xmlns="http://www.w3.org/2000/svg" viewBox="0 0 512 512" width="512" height="512">
  <defs>
    <linearGradient id="bg" x1="0%" y1="0%" x2="100%" y2="100%">
      <stop offset="0%" stop-color="#52b788"/>
      <stop offset="100%" stop-color="#1b4332"/>
    </linearGradient>
  </defs>
  <rect width="512" height="512" rx="112" fill="url(#bg)"/>
  <path
    d="M 256 256
       C 262 228 278 200 308 186
       C 340 172 376 178 400 204
       C 424 230 424 266 404 292
       C 384 318 352 328 320 318
       C 288 308 264 282 256 256
       C 248 230 224 204 192 194
       C 160 184 128 194 108 220
       C 88 246 92 282 112 308
       C 132 334 164 340 196 328
       C 228 316 250 286 256 256"
    fill="none"
    stroke="white"
    stroke-width="52"
    stroke-linecap="round"
    stroke-linejoin="round"
  />
</svg>
